<svg width="23" height="23" viewBox="0 0 23 23" fill="none" xmlns="http://www.w3.org/2000/svg">
<path d="M2.875 7.66669H9.58333C10.152 7.66669 10.7078 7.49807 11.1806 7.18216C11.6534 6.86625 12.0219 6.41724 12.2395 5.8919C12.4571 5.36657 12.514 4.7885 12.4031 4.2308C12.2922 3.67311 12.0183 3.16083 11.6163 2.75876C11.2142 2.35668 10.7019 2.08286 10.1442 1.97193C9.58652 1.861 9.00846 1.91793 8.48312 2.13553C7.95778 2.35314 7.50877 2.72163 7.19286 3.19442C6.87695 3.66722 6.70833 4.22307 6.70833 4.79169" stroke="#2052D1" stroke-width="2" stroke-linecap="round" stroke-linejoin="round"/>
<path d="M3.83337 15.3334H14.375C14.9437 15.3334 15.4995 15.502 15.9723 15.8179C16.4451 16.1338 16.8136 16.5828 17.0312 17.1082C17.2488 17.6335 17.3057 18.2116 17.1948 18.7693C17.0839 19.327 16.81 19.8392 16.408 20.2413C16.0059 20.6434 15.4936 20.9172 14.9359 21.0281C14.3782 21.1391 13.8002 21.0821 13.2748 20.8645C12.7495 20.6469 12.3005 20.2784 11.9846 19.8056C11.6687 19.3328 11.5 18.777 11.5 18.2084" stroke="#2052D1" stroke-width="2" stroke-linecap="round" stroke-linejoin="round"/>
<path d="M1.91669 11.5H18.2084C18.777 11.5 19.3328 11.3314 19.8056 11.0155C20.2784 10.6996 20.6469 10.2506 20.8645 9.72522C21.0821 9.19988 21.139 8.62181 21.0281 8.06412C20.9172 7.50642 20.6434 6.99414 20.2413 6.59207C19.8392 6.18999 19.3269 5.91618 18.7692 5.80524C18.2115 5.69431 17.6335 5.75125 17.1081 5.96885C16.5828 6.18645 16.1338 6.55495 15.8179 7.02774C15.502 7.50053 15.3334 8.05638 15.3334 8.625" stroke="#2052D1" stroke-width="2" stroke-linecap="round" stroke-linejoin="round"/>
</svg>
