<svg width="26" height="26" viewBox="0 0 26 26" fill="none" xmlns="http://www.w3.org/2000/svg">
<path d="M0 5.6875C0 7.00781 1.4885 8.125 3.25 8.125C4.21525 8.125 5.08788 7.78537 5.6875 7.26456C6.28712 7.78537 7.16056 8.125 8.125 8.125C9.09025 8.125 9.96288 7.78537 10.5625 7.26456C11.1621 7.78537 12.0356 8.125 13 8.125C13.9652 8.125 14.8379 7.78537 15.4375 7.26456C16.0371 7.78537 16.9106 8.125 17.875 8.125C18.8402 8.125 19.7129 7.78537 20.3125 7.26456C20.9121 7.78537 21.7856 8.125 22.75 8.125C24.5115 8.125 26 7.00781 26 5.6875H24.375C24.375 5.93531 23.7591 6.5 22.75 6.5C21.7563 6.5 21.125 5.92881 21.125 5.6875H19.5C19.5 5.93531 18.8841 6.5 17.875 6.5C16.8813 6.5 16.25 5.92881 16.25 5.6875H14.625C14.625 5.93531 14.0091 6.5 13 6.5C12.0063 6.5 11.375 5.92881 11.375 5.6875H9.75C9.75 5.93531 9.13738 6.5 8.125 6.5C7.13131 6.5 6.5 5.92881 6.5 5.6875H4.875C4.875 5.93531 4.26238 6.5 3.25 6.5C2.25631 6.5 1.625 5.92881 1.625 5.6875H0ZM0 12.1875C0 13.5078 1.4885 14.625 3.25 14.625C4.21525 14.625 5.08788 14.2854 5.6875 13.7646C6.28712 14.2854 7.16056 14.625 8.125 14.625C9.09025 14.625 9.96288 14.2854 10.5625 13.7646C11.1621 14.2854 12.0356 14.625 13 14.625C13.9652 14.625 14.8379 14.2854 15.4375 13.7646C16.0371 14.2854 16.9106 14.625 17.875 14.625C18.8402 14.625 19.7129 14.2854 20.3125 13.7646C20.9121 14.2854 21.7856 14.625 22.75 14.625C24.5115 14.625 26 13.5078 26 12.1875H24.375C24.375 12.4353 23.7591 13 22.75 13C21.7563 13 21.125 12.4288 21.125 12.1875H19.5C19.5 12.4353 18.8841 13 17.875 13C16.8813 13 16.25 12.4288 16.25 12.1875H14.625C14.625 12.4353 14.0091 13 13 13C12.0063 13 11.375 12.4288 11.375 12.1875H9.75C9.75 12.4353 9.13738 13 8.125 13C7.13131 13 6.5 12.4288 6.5 12.1875H4.875C4.875 12.4353 4.26238 13 3.25 13C2.25631 13 1.625 12.4288 1.625 12.1875H0ZM0 18.6875C0 20.0078 1.4885 21.125 3.25 21.125C4.21525 21.125 5.08788 20.7854 5.6875 20.2646C6.28712 20.7854 7.16056 21.125 8.125 21.125C9.09025 21.125 9.96288 20.7854 10.5625 20.2646C11.1621 20.7854 12.0356 21.125 13 21.125C13.9652 21.125 14.8379 20.7854 15.4375 20.2646C16.0371 20.7854 16.9106 21.125 17.875 21.125C18.8402 21.125 19.7129 20.7854 20.3125 20.2646C20.9121 20.7854 21.7856 21.125 22.75 21.125C24.5115 21.125 26 20.0078 26 18.6875H24.375C24.375 18.9353 23.7591 19.5 22.75 19.5C21.7563 19.5 21.125 18.9288 21.125 18.6875H19.5C19.5 18.9353 18.8841 19.5 17.875 19.5C16.8813 19.5 16.25 18.9288 16.25 18.6875H14.625C14.625 18.9353 14.0091 19.5 13 19.5C12.0063 19.5 11.375 18.9288 11.375 18.6875H9.75C9.75 18.9353 9.13738 19.5 8.125 19.5C7.13131 19.5 6.5 18.9288 6.5 18.6875H4.875C4.875 18.9353 4.26238 19.5 3.25 19.5C2.25631 19.5 1.625 18.9288 1.625 18.6875H0Z" fill="#2052D1"/>
</svg>
